<svg width="216" height="419" viewBox="0 0 216 419" fill="none" xmlns="http://www.w3.org/2000/svg">
<path d="M160.6 106.4C175 106.4 186.133 110.733 194 119.4C202 128.067 206 139.8 206 154.6V220H161.8V160.2C161.8 155.4 160.333 151.667 157.4 149C154.6 146.2 150.8 144.8 146 144.8C141.067 144.8 137.2 146.2 134.4 149C131.6 151.667 130.2 155.4 130.2 160.2V220H86V160.2C86 155.4 84.5333 151.667 81.6 149C78.8 146.2 75 144.8 70.2 144.8C65.2667 144.8 61.4 146.2 58.6 149C55.8 151.667 54.4 155.4 54.4 160.2V220H10V107.2H54.4V122.4C57.6 117.6 61.9333 113.733 67.4 110.8C73 107.867 79.5333 106.4 87 106.4C95.1333 106.4 102.333 108.2 108.6 111.8C114.867 115.267 119.867 120.2 123.6 126.6C127.733 120.733 133 115.933 139.4 112.2C145.8 108.333 152.867 106.4 160.6 106.4Z" fill="#204482"/>
<path d="M160.6 225.4C175 225.4 186.133 229.733 194 238.4C202 247.067 206 258.8 206 273.6V339H161.8V279.2C161.8 274.4 160.333 270.667 157.4 268C154.6 265.2 150.8 263.8 146 263.8C141.067 263.8 137.2 265.2 134.4 268C131.6 270.667 130.2 274.4 130.2 279.2V339H86V279.2C86 274.4 84.5333 270.667 81.6 268C78.8 265.2 75 263.8 70.2 263.8C65.2667 263.8 61.4 265.2 58.6 268C55.8 270.667 54.4 274.4 54.4 279.2V339H10V226.2H54.4V241.4C57.6 236.6 61.9333 232.733 67.4 229.8C73 226.867 79.5333 225.4 87 225.4C95.1333 225.4 102.333 227.2 108.6 230.8C114.867 234.267 119.867 239.2 123.6 245.6C127.733 239.733 133 234.933 139.4 231.2C145.8 227.333 152.867 225.4 160.6 225.4Z" fill="#204482"/>
<path d="M183 96C183 86.1509 181.06 76.3982 177.291 67.2987C173.522 58.1993 167.997 49.9314 161.033 42.967C154.069 36.0026 145.801 30.4781 136.701 26.709C127.602 22.9399 117.849 21 108 21C98.1509 21 88.3982 22.9399 79.2987 26.709C70.1993 30.4781 61.9314 36.0026 54.967 42.967C48.0026 49.9314 42.4781 58.1993 38.709 67.2987C34.9399 76.3982 33 86.1509 33 96L62.9889 96C62.9889 90.0891 64.1532 84.236 66.4152 78.775C68.6772 73.314 71.9927 68.352 76.1724 64.1724C80.352 59.9927 85.314 56.6772 90.775 54.4152C96.236 52.1532 102.089 50.9889 108 50.9889C113.911 50.9889 119.764 52.1532 125.225 54.4152C130.686 56.6772 135.648 59.9927 139.828 64.1724C144.007 68.352 147.323 73.314 149.585 78.775C151.847 84.236 153.011 90.0891 153.011 96H183Z" fill="#204482"/>
</svg>
